<svg id="Artwork" xmlns="http://www.w3.org/2000/svg" viewBox="0 0 446.96 163"><defs><style>.cls-1{fill:#fff;}.cls-2{fill:#4a4f54;}</style></defs><title>WD-Logo-YellowBackground</title><path class="cls-1" d="M0,5H23.78v8H11.53V86.73H23.78v8H0Z" transform="translate(0 -5)"/><path class="cls-1" d="M447,168H423.18v-8h12.25V86.23H423.18v-8H447Z" transform="translate(0 -5)"/><polygon class="cls-2" points="95.9 19.13 84.67 54.06 73.09 18.99 64.2 18.99 52.62 54.06 41.39 19.13 29.73 19.13 47.89 71.6 56.91 71.6 68.5 37.68 80.1 71.6 89.11 71.6 107.27 19.13 95.9 19.13"/><path class="cls-2" d="M146.43,76.24h11.5L135,23.78h-9.47L102.62,76.24h11.21L119,64.14h22.37Zm-9.16-21.9H123.06l7.08-16.51Z" transform="translate(0 -5)"/><polygon class="cls-2" points="212.51 71.24 212.51 19.13 201.85 19.13 201.85 51.85 176.5 19.13 166.85 19.13 166.85 71.24 177.51 71.24 177.51 37.52 203.65 71.24 212.51 71.24"/><polygon class="cls-2" points="237.14 71.24 248.01 71.24 248.01 29.29 263.9 29.29 263.9 19.13 221.25 19.13 221.25 29.29 237.14 29.29 237.14 71.24"/><polygon class="cls-2" points="312.15 61.37 283.44 61.37 283.44 49.91 308.57 49.91 308.57 40.03 283.44 40.03 283.44 29.01 311.79 29.01 311.79 19.13 272.64 19.13 272.64 71.24 312.15 71.24 312.15 61.37"/><path class="cls-2" d="M341.71,24.13H322V76.24h19.68c16,0,27.63-11,27.63-26.12S357.72,24.13,341.71,24.13Zm0,42.09h-8.88V34.15h8.88c9.81,0,16.39,6.47,16.39,16.11S351.52,66.22,341.71,66.22Z" transform="translate(0 -5)"/><path class="cls-2" d="M139.43,95.57h-19.9v52.71h19.9c16.2,0,27.95-11.12,27.95-26.43S155.59,95.57,139.43,95.57Zm-9,10.11h9c9.93,0,16.61,6.56,16.61,16.32s-6.68,16.16-16.61,16.16h-9Z" transform="translate(0 -5)"/><polygon class="cls-2" points="189.93 121.69 215.36 121.69 215.36 111.72 189.93 111.72 189.93 100.54 218.62 100.54 218.62 90.57 179.02 90.57 179.02 143.28 218.98 143.28 218.98 133.31 189.93 133.31 189.93 121.69"/><path class="cls-2" d="M252.69,116.9h0c-10.15-2.42-11.26-4.09-11.26-7.06s2.92-5.09,7.26-5.09,8.64,1.64,13.16,5l.83.61,5.91-8.34-.73-.59a29.25,29.25,0,0,0-19-6.59c-10.78,0-18.31,6.48-18.31,15.77,0,10,6.47,13.49,17.66,16.19,9.92,2.29,10.66,4.2,10.66,6.85,0,3.36-3.05,5.44-8,5.44-5.62,0-10.21-1.89-15.35-6.34l-.77-.67-6.64,7.9.73.64A32.27,32.27,0,0,0,250.65,149c11.6,0,19.1-6.36,19.1-16.21C269.75,122.47,261.55,119.05,252.69,116.9Z" transform="translate(0 -5)"/><rect class="cls-2" x="281.66" y="90.57" width="10.91" height="52.7"/><path class="cls-2" d="M329.17,127.7h13v8A20,20,0,0,1,330.9,139c-9.57,0-16.24-7.06-16.24-17.18,0-9.51,6.78-17,15.44-17,6.2,0,9.78,2,13.55,5.19l.76.66,6.94-8.28-.76-.64c-6-5-11.8-7.12-20.13-7.12a26.94,26.94,0,0,0-27.15,26.73V122c0,16,11.23,27.14,27.3,27.14A33.19,33.19,0,0,0,352.43,141l.35-.3V118H329.17Z" transform="translate(0 -5)"/><polygon class="cls-2" points="400.66 90.57 400.66 123.71 374.98 90.57 365.24 90.57 365.24 143.28 376 143.28 376 109.13 402.47 143.28 411.42 143.28 411.42 90.57 400.66 90.57"/></svg>